<svg xmlns="http://www.w3.org/2000/svg"  viewBox="0 0 64 64" width="512px" height="512px"><linearGradient id="SVGID_1_" x1="49.007" x2="49.007" y1="14.16" y2="20.47" gradientUnits="userSpaceOnUse"><stop offset="0" stop-color="#6dc7ff"/><stop offset="1" stop-color="#e6abff"/></linearGradient><circle cx="49" cy="18" r="4" fill="url(#SVGID_1_)"/><linearGradient id="SVGID_2_" x1="33.007" x2="33.007" y1="11.182" y2="19.485" gradientUnits="userSpaceOnUse"><stop offset="0" stop-color="#6dc7ff"/><stop offset="1" stop-color="#e6abff"/></linearGradient><circle cx="33" cy="16" r="4" fill="url(#SVGID_2_)"/><linearGradient id="SVGID_3_" x1="20" x2="20" y1="23.23" y2="39.07" gradientUnits="userSpaceOnUse"><stop offset="0" stop-color="#6dc7ff"/><stop offset="1" stop-color="#e6abff"/></linearGradient><path fill="url(#SVGID_3_)" d="M25,26H15v2h4v10h2V28h4V26z"/><linearGradient id="SVGID_4_" x1="32.003" x2="32.003" y1="5.723" y2="53.383" gradientUnits="userSpaceOnUse"><stop offset="0" stop-color="#1a6dff"/><stop offset="1" stop-color="#c822ff"/></linearGradient><path fill="url(#SVGID_4_)" d="M54,26H43h-1h-9v-2c0,0,0,0,0,0c4.4,0,8-3.6,8-8s-3.6-8-8-8s-8,3.6-8,8c0,1.1,0.2,2.1,0.6,3H10 c-1.7,0-3,1.3-3,3v20c0,1.7,1.3,3,3,3h11.1c0.7,6.2,6,11,12.4,11c5.9,0,10.9-4.2,12.2-9.7c1,0.5,2.1,0.7,3.3,0.7c4.4,0,8-3.6,8-8 V29C57,27.3,55.7,26,54,26z M33,10c3.3,0,6,2.7,6,6s-2.7,6-6,6c0,0,0,0,0,0v0c0-1.7-1.3-3-3-3h-2.2c-0.5-0.9-0.8-1.9-0.8-3 C27,12.7,29.7,10,33,10z M10,43c-0.6,0-1-0.4-1-1V22c0-0.6,0.4-1,1-1h20c0.6,0,1,0.4,1,1v20c0,0.6-0.4,1-1,1H10z M33.5,54 c-5.3,0-9.6-3.9-10.4-9H30c1.7,0,3-1.3,3-3V28h10c0.6,0,1,0.4,1,1v1h-6v2h6v11.5C44,49.3,39.3,54,33.5,54z M55,39c0,3.3-2.7,6-6,6 c-1.1,0-2.1-0.3-3-0.8c0-0.2,0-0.4,0-0.7V29c0-0.4-0.1-0.7-0.2-1H54c0.6,0,1,0.4,1,1V39z"/><linearGradient id="SVGID_5_" x1="49.007" x2="49.007" y1="5.723" y2="53.383" gradientUnits="userSpaceOnUse"><stop offset="0" stop-color="#1a6dff"/><stop offset="1" stop-color="#c822ff"/></linearGradient><path fill="url(#SVGID_5_)" d="M49,23c2.8,0,5-2.2,5-5s-2.2-5-5-5s-5,2.2-5,5S46.3,23,49,23z M49,15c1.7,0,3,1.3,3,3s-1.3,3-3,3s-3-1.3-3-3 S47.4,15,49,15z"/><linearGradient id="SVGID_6_" x1="50.981" x2="50.981" y1="38.473" y2="42.415" gradientUnits="userSpaceOnUse"><stop offset="0" stop-color="#6dc7ff"/><stop offset="1" stop-color="#e6abff"/></linearGradient><path fill="url(#SVGID_6_)" d="M49.6,43c1.7-0.3,3.1-1.6,3.4-3.4c0-0.3-0.2-0.6-0.5-0.6h-3c-0.3,0-0.5,0.2-0.5,0.5v3C49,42.8,49.3,43,49.6,43z"/></svg>