<?xml version="1.0" standalone="no"?>
<!DOCTYPE svg PUBLIC "-//W3C//DTD SVG 20010904//EN"
 "http://www.w3.org/TR/2001/REC-SVG-20010904/DTD/svg10.dtd">
<svg version="1.0" xmlns="http://www.w3.org/2000/svg"
 width="1280.000000pt" height="1280.000000pt" viewBox="0 0 1280.000000 1280.000000"
 preserveAspectRatio="xMidYMid meet">
<metadata>
Created by potrace 1.15, written by Peter Selinger 2001-2017
</metadata>
<g transform="translate(0.000000,1280.000000) scale(0.100000,-0.100000)"
fill="#000000" stroke="none">
<path d="M6545 10293 c-145 -13 -500 -73 -645 -109 -321 -80 -682 -249 -971
-454 -156 -112 -270 -210 -445 -384 -262 -262 -419 -476 -559 -761 -192 -392
-249 -657 -301 -1385 -9 -129 -19 -238 -23 -241 -3 -4 -118 -16 -256 -29 -279
-25 -329 -37 -387 -97 -66 -69 -66 -70 -118 -571 -27 -257 -140 -1324 -250
-2372 -124 -1170 -199 -1922 -196 -1949 14 -102 80 -196 166 -234 75 -33 393
-68 570 -61 140 4 576 10 4680 54 1031 11 2048 23 2260 28 449 8 427 3 555
127 57 55 77 83 95 130 31 82 32 224 3 410 -12 77 -38 286 -58 465 -19 179
-71 638 -114 1020 -191 1655 -334 2904 -361 3145 -17 143 -37 281 -46 307 -21
64 -82 130 -145 157 -76 33 -166 36 -423 11 -164 -15 -231 -18 -236 -10 -4 6
-12 79 -19 163 -71 899 -188 1274 -538 1724 -394 508 -1031 841 -1742 913 -95
9 -403 11 -496 3z m440 -1378 c293 -51 562 -187 740 -376 122 -130 239 -340
265 -478 14 -76 41 -662 31 -672 -3 -3 -190 -22 -416 -43 -225 -20 -752 -68
-1170 -106 -418 -38 -911 -83 -1095 -100 -184 -17 -348 -32 -364 -35 l-29 -5
7 166 c8 200 19 285 56 429 50 193 118 346 228 510 224 335 643 610 1032 678
98 18 279 46 330 51 68 8 296 -3 385 -19z m-300 -3439 c30 -13 82 -53 127 -98
89 -86 97 -108 98 -252 0 -109 -19 -187 -73 -291 -50 -96 -163 -215 -249 -263
-77 -43 -109 -91 -115 -174 -4 -58 40 -302 163 -904 l6 -32 -188 -6 c-104 -3
-215 -9 -247 -12 -56 -5 -58 -4 -52 18 3 13 35 167 71 343 73 357 82 455 50
515 -27 49 -193 218 -239 241 -30 16 -45 34 -67 81 -41 86 -53 157 -47 268 12
241 182 476 404 560 115 44 269 46 358 6z"/>
</g>
</svg>
