<?xml version="1.0" encoding="iso-8859-1"?>
<!-- Generator: Adobe Illustrator 18.0.0, SVG Export Plug-In . SVG Version: 6.00 Build 0)  -->
<!DOCTYPE svg PUBLIC "-//W3C//DTD SVG 1.1//EN" "http://www.w3.org/Graphics/SVG/1.1/DTD/svg11.dtd">
<svg version="1.1" id="Capa_1" xmlns="http://www.w3.org/2000/svg" xmlns:xlink="http://www.w3.org/1999/xlink" x="0px" y="0px"
	 viewBox="0 0 460.487 460.487" style="enable-background:new 0 0 460.487 460.487;" xml:space="preserve">
<g>
	<path d="M457.207,177.296c-2.052-1.397-4.661-1.688-6.971-0.777l-65.578,25.858h-38.732v-20.731h34.204
		c16.006,0,29.028-13.022,29.028-29.029s-13.022-29.029-29.028-29.029h-41.704H201.939c-7.018,0-13.324-3.9-16.458-10.179l0,0
		l-4.262-8.537c-5.69-11.399-17.139-18.48-29.879-18.48H60.711c-15.835,0-29.122,11.082-32.536,25.896H7.5
		c-2.248,0-4.377,1.008-5.802,2.747c-1.424,1.739-1.994,4.025-1.552,6.229l11,54.808c0.703,3.503,3.78,6.024,7.354,6.024h8.815
		v134.829c0,14.469,11.772,26.241,26.241,26.241h62.099v23.431c0,4.142,3.358,7.5,7.5,7.5h126.931c4.143,0,7.5-3.358,7.5-7.5
		v-23.431h62.099c14.47,0,26.241-11.771,26.241-26.241v-9.095h38.732l65.578,25.858c0.889,0.351,1.821,0.523,2.75,0.523
		c1.485,0,2.959-0.441,4.221-1.3c2.052-1.396,3.28-3.718,3.28-6.2V183.496C460.487,181.014,459.259,178.693,457.207,177.296z
		 M394.158,152.617c0,7.736-6.293,14.029-14.028,14.029h-34.204v-28.059h34.204C387.865,138.588,394.158,144.881,394.158,152.617z
		 M24.645,167.095l-7.99-39.808h10.66v39.808H24.645z M242.586,359.095H130.655v-15.931h111.931V359.095z M330.926,316.924
		c0,6.198-5.043,11.241-11.241,11.241H53.556c-6.198,0-11.241-5.042-11.241-11.241V174.595v-54.807
		c0-10.143,8.252-18.396,18.396-18.396h90.627c7.018,0,13.324,3.9,16.458,10.179l4.262,8.537
		c5.69,11.398,17.139,18.479,29.879,18.479h128.987V316.924z M345.926,217.378h32.657v75.451h-32.657V217.378z M445.487,315.69
		l-51.904-20.466v-80.242l51.904-20.466V315.69z"/>
	<path d="M276.5,165.745H96.742c-15.036,0-27.269,12.233-27.269,27.269v80.724c0,15.036,12.233,27.269,27.269,27.269H276.5
		c15.036,0,27.269-12.233,27.269-27.269v-80.724C303.768,177.978,291.536,165.745,276.5,165.745z M288.768,273.738
		c0,6.765-5.504,12.269-12.269,12.269H96.742c-6.765,0-12.269-5.504-12.269-12.269v-80.724c0-6.765,5.504-12.269,12.269-12.269
		H276.5c6.765,0,12.269,5.504,12.269,12.269V273.738z"/>
	<path d="M259.689,187.387c-12.406,0-22.499,10.093-22.499,22.499s10.093,22.499,22.499,22.499s22.499-10.093,22.499-22.499
		S272.095,187.387,259.689,187.387z M259.689,217.385c-4.135,0-7.499-3.364-7.499-7.499s3.364-7.499,7.499-7.499
		s7.499,3.364,7.499,7.499S263.824,217.385,259.689,217.385z"/>
	<path d="M187.893,261.883H99.397c-4.142,0-7.5,3.358-7.5,7.5s3.358,7.5,7.5,7.5h88.496c4.142,0,7.5-3.358,7.5-7.5
		S192.035,261.883,187.893,261.883z"/>
	<path d="M215.227,266.512c-2.011-4.766-8.543-6.228-12.23-2.43c-4.321,4.194-1.774,11.662,4.021,12.683
		C212.777,277.779,217.369,271.874,215.227,266.512C215.037,266.062,215.406,266.962,215.227,266.512z"/>
</g>
<g>
</g>
<g>
</g>
<g>
</g>
<g>
</g>
<g>
</g>
<g>
</g>
<g>
</g>
<g>
</g>
<g>
</g>
<g>
</g>
<g>
</g>
<g>
</g>
<g>
</g>
<g>
</g>
<g>
</g>
</svg>
